# xmcd CD database file
#
# Track frame offsets:
#	150
#	14131
#	28181
#	43514
#	57327
#	73647
#	88363
#	104173
#	116006
#	129058
#	150254
#	166633
#	184878
#	197715
#	216814
#
# Disc length: 3143 seconds
#
# Revision: 0
# Processed by: cddbd v1.5.2PL0 Copyright (c) Steve Scherf et al.
# Submitted via: CDex 1.51
#
DISCID=d20c450f
DTITLE=John Williamson - Wildlife Warriors  IT'S TIME
DYEAR=2006
DGENRE=Country
TTITLE0=Wildlife Warriors: It's Time (2006)
TTITLE1=Rip Rip Woodchip (1989)
TTITLE2=Dingo (1989)
TTITLE3=Humpin' My Bluey (1986)
TTITLE4=It's A Way Of Life (1988)
TTITLE5=Send Down The Rain (1982)
TTITLE6=Goodbye Blinky Bill (1986)
TTITLE7=Koala Koala (1990)
TTITLE8=A Thousand Feet   With Warren H. Williams (1999)
TTITLE9=Ancient Mountains (1989)
TTITLE10=River Crying Out (1994)
TTITLE11=Rosewood Hill (1998)
TTITLE12=Home Among The Gum Trees (2006) (Live - Steve Irwin Memorial Tribute)
TTITLE13=True Blue (2006) (Live - Steve Irwin Memorial Tribute)
TTITLE14=The Trees Have Now Gone (1984)
EXTD=YEAR: 2006
EXTT0=
EXTT1=
EXTT2=
EXTT3=
EXTT4=
EXTT5=
EXTT6=
EXTT7=
EXTT8=
EXTT9=
EXTT10=
EXTT11=
EXTT12=
EXTT13=
EXTT14=
PLAYORDER=
